# AST/ASF file generated using VICON BodyLanguage
# -----------------------------------------------
:version 1.10
:name VICON
:units
  mass 1.0
  length 0.45
  angle deg
:documentation
   .ast/.asf automatically generated from VICON data using
   VICON BodyBuilder and BodyLanguage model FoxedUp or BRILLIANT.MOD
:root
   order TX TY TZ RX RY RZ
   axis XYZ
   position 0 0 0  
   orientation 0 0 0 
:bonedata
  begin
     id 1 
     name lhipjoint
     direction 0.584852 -0.759097 0.285867 
     length 2.43633 
     axis 0 0 0  XYZ
  end
  begin
     id 2 
     name lfemur
     direction 0.34202 -0.939693 0  
     length 7.14704  
     axis 0 0 20  XYZ
    dof rx ry rz
    limits (-160.0 20.0)
           (-70.0 70.0)
           (-60.0 70.0)
  end
  begin
     id 3 
     name ltibia
     direction 0.342022 -0.939692 0   
     length 7.68483   
     axis 0 0 20   XYZ
    dof rx
    limits (-10.0 170.0)
  end
  begin
     id 4 
     name lfoot
     direction 0.0999605 -0.274639 0.956337   
     length 2.40452   
     axis -90 7.62852e-016 20   XYZ
    dof rx rz
    limits (-45.0 90.0)
           (-70.0 20.0)
  end
  begin
     id 5 
     name ltoes
     direction 1.53468e-011 -4.21881e-011 1   
     length 1.19837   
     axis -90 7.62852e-016 20   XYZ
    dof rx
    limits (-90.0 20.0)
  end
  begin
     id 6 
     name rhipjoint
     direction -0.569886 -0.769002 0.289597   
     length 2.40495  
     axis 0 0 0  XYZ 
  end
  begin
     id 7 
     name rfemur
     direction -0.34202 -0.939693 0   
     length 7.45086   
     axis 0 0 -20   XYZ
    dof rx ry rz
    limits (-160.0 20.0)
           (-70.0 70.0)
           (-70.0 60.0)
  end
  begin
     id 8 
     name rtibia
     direction -0.34202 -0.939693 0   
     length 7.76831   
     axis 0 0 -20   XYZ
    dof rx
    limits (-10.0 170.0)
 end
 begin
     id 9 
     name rfoot
     direction -0.0798572 -0.219406 0.97236   
     length 2.35911  
     axis -90 -7.62852e-016 -20   XYZ
    dof rx rz
    limits (-45.0 90.0)
           (-20.0 70.0)
  end
  begin
     id 10 
     name rtoes
     direction -1.53469e-011 -4.21728e-011 1   
     length 1.18261   
     axis -90 -7.62852e-016 -20   XYZ
    dof rx
    limits (-90.0 20.0)
  end
  begin
     id 11 
     name lowerback
     direction 0.0242088 0.999437 0.0232389   
     length 2.1561   
     axis 0 0 0   XYZ
    dof rx ry rz
    limits (-20.0 45.0)
           (-30.0 30.0)
           (-30.0 30.0)
  end
  begin
     id 12 
     name upperback
     direction -0.0356893 0.999013 -0.0264323   
     length 2.14431   
     axis 0 0 0   XYZ
    dof rx ry rz
    limits (-20.0 45.0)
           (-30.0 30.0)
           (-30.0 30.0)
  end
  begin
     id 13 
     name thorax
     direction -0.0472163 0.998194 -0.0371284   
     length 2.16169   
     axis 0 0 0   XYZ
    dof rx ry rz
    limits (-20.0 45.0)
           (-30.0 30.0)
           (-30.0 30.0)
  end
  begin
     id 14 
     name lowerneck
     direction 0.00863244 0.999921 0.00911972   
     length 1.58651   
     axis 0 0 0   XYZ
    dof rx ry rz
    limits (-20.0 45.0)
           (-30.0 30.0)
           (-30.0 30.0)
  end
  begin
     id 15 
     name upperneck
     direction 0.149523 0.979068 -0.138086   
     length 1.57486   
     axis 0 0 0   XYZ
    dof rx ry rz
    limits (-20.0 45.0)
           (-30.0 30.0)
           (-30.0 30.0)
  end
  begin
     id 16
     name head
     direction 0.0445219 0.997708 -0.0509576  
     length 1.6019  
     axis 0 0 0   XYZ
    dof rx ry rz
    limits (-20.0 45.0)
           (-30.0 30.0)
           (-30.0 30.0)
  end
  begin
     id 17 
     name lclavicle
     direction 0.911271 0.381667 -0.154644  
     length 3.80848  
     axis 0 0 0   XYZ
    dof ry rz
    limits (-20.0 10.0)
           (0.0 20.0)
  end
  begin
     id 18 
     name lhumerus
     direction 1 -4.49003e-011 2.1308e-027   
     length 5.19069   
     axis 180 -30 -90   XYZ
    dof rx ry rz
    limits (-60.0 90.0)
           (-90.0 90.0)
           (-90.0 90.0)
  end
  begin
     id 19
     name lradius
     direction 1 -4.48914e-011 4.01554e-027   
     length 3.30016   
     axis 180 -30 -90   XYZ
    dof rx
    limits (-10.0 170.0)
  end
  begin
     id 20
     name lwrist
     direction 1 -4.49003e-011 1.1934e-026   
     length 1.65008   
     axis -8.46377e-015 90 90   XYZ
    dof ry
    limits (-180.0 0.0)
 end
  begin
     id 21 
     name lhand
     direction 1 -4.49034e-011 2.38659e-026   
     length 0.707698   
     axis -1.52313e-014 90 90   XYZ
    dof rx rz
    limits (-90.0 90.0)
           (-45.0 45.0)
  end
  begin
     id 22 
     name lfingers
     direction 1 -4.48691e-011 4.77775e-026   
     length 0.570564   
     axis -3.04623e-014 90 90   XYZ
    dof rx
    limits (0.0 90.0)
  end
  begin
     id 23
     name lthumb
     direction 0.707107 -6.34832e-011 0.707107   
     length 0.819219   
     axis -90 45 -1.62303e-014   XYZ
    dof rx rz
    limits (-45.0 45.0)
           (-45.0 45.0)
  end
  begin
     id 24 
     name rclavicle
     direction -0.815579 0.573708 -0.0754329   
     length 3.54371  
     axis 0 0 0   XYZ 
    dof ry rz
    limits (-10.0 20.0)
           (-20.0 0.0)
  end
  begin
     id 25 
     name rhumerus
     direction -1 -4.48956e-011 3.05351e-028  
     length 5.23924   
     axis 180 30 90   XYZ
    dof rx ry rz
    limits (-90.0 60.0)
           (-90.0 90.0)
           (-90.0 90.0)
  end
  begin
     id 26 
     name rradius
     direction -1 -4.49013e-011 3.53849e-027   
     length 3.32953   
     axis 180 30 90   XYZ
    dof rx
    limits (-10.0 170.0)
  end
  begin
     id 27 
     name rwrist
     direction -1 -4.48901e-011 1.19374e-026   
     length 1.66477   
     axis -8.46377e-015 -90 -90   XYZ
    dof ry
    limits (-180.0 0.0)
  end
  begin
     id 28
     name rhand
     direction -1 -4.48877e-011 2.38764e-026   
     length 0.607414   
     axis -1.52313e-014 -90 -90   XYZ
    dof rx rz
    limits (-90.0 90.0)
           (-45.0 45.0)
  end
  begin
     id 29
     name rfingers
     direction -1 -4.48882e-011 4.77521e-026   
     length 0.489712   
     axis -3.04623e-014 -90 -90   XYZ
    dof rx
    limits (0.0 90.0)
  end
  begin
     id 30
     name rthumb
     direction -0.707107 -6.34974e-011 0.707107   
     length 0.703132   
     axis -90 -45 1.62303e-014   XYZ
    dof rx rz
    limits (-45.0 45.0)
           (-45.0 45.0)
  end
:hierarchy
  begin
    root lhipjoint rhipjoint lowerback
    lhipjoint lfemur
    lfemur ltibia
    ltibia lfoot
    lfoot ltoes
    rhipjoint rfemur
    rfemur rtibia
    rtibia rfoot
    rfoot rtoes
    lowerback upperback
    upperback thorax
    thorax lowerneck lclavicle rclavicle
    lowerneck upperneck
    upperneck head
    lclavicle lhumerus
    lhumerus lradius
    lradius lwrist
    lwrist lhand lthumb
    lhand lfingers
    rclavicle rhumerus
    rhumerus rradius
    rradius rwrist
    rwrist rhand rthumb
    rhand rfingers
  end

#!OML:ASF E:\VariousWalksJay\Project 1\Capture day 1\Session 1\Actor2.ASF
:FULLY-SPECIFIED
:DEGREES
279
root 7.65864 16.0788 9.05746 19.4364 -31.1145 -6.46169
lowerback 9.32918 -2.14493 12.5881
upperback 8.28564 -2.314 3.72431
thorax 3.29375 -0.755533 -2.94696
lowerneck -1.75195 -2.18366 0.323694
upperneck -13.8336 -2.60964 4.38415
head -4.16847 -1.57305 1.49618
rclavicle -4.25399e-014 -3.97569e-015
rhumerus -75.0962 25.356 -126.602
rradius 68.4069
rwrist 26.3786
rhand -7.25059 10.8086
rfingers 7.12502
rthumb 18.6298 -18.3193
lclavicle -4.25399e-014 -3.97569e-015
lhumerus -75.4933 -31.2388 141.34
lradius 63.3333
lwrist 2.66205
lhand 12.0939 -7.1115
lfingers 7.12502
lthumb 37.1095 18.9246
rfemur -42.6035 3.76845 29.5598
rtibia 58.8699
rfoot -33.5653 -15.2146
rtoes -14.2916
lfemur -61.0805 10.8274 -19.3945
ltibia 109.257
lfoot -21.5065 8.67438
ltoes -19.026
280
root 7.64093 15.9788 9.10346 19.0137 -30.9388 -6.54427
lowerback 9.41717 -2.21018 12.9152
upperback 8.31532 -2.37216 3.81574
thorax 3.27256 -0.773577 -3.02084
lowerneck -1.81921 -2.22646 0.275189
upperneck -13.6599 -2.68954 4.22737
head -4.09146 -1.59901 1.44828
rclavicle -2.3059e-014 -2.38542e-015
rhumerus -75.1687 25.3827 -126.626
rradius 68.3321
rwrist 26.0416
rhand -7.19021 10.5251
rfingers 7.12502
rthumb 18.6879 -18.5973
lclavicle -2.3059e-014 -2.38542e-015
lhumerus -75.3482 -31.1435 141.37
lradius 63.1973
lwrist 2.9271
lhand 12.0981 -7.10969
lfingers 7.12502
lthumb 37.1135 18.9253
rfemur -42.6566 4.06595 29.6504
rtibia 60.3602
rfoot -33.8907 -15.9445
rtoes -13.8137
lfemur -61.2474 10.0025 -19.1167
ltibia 106.951
lfoot -22.1036 9.78257
ltoes -18.6676
281
root 7.62201 15.8754 9.15028 18.5126 -30.7435 -6.60009
lowerback 9.55281 -2.28347 13.2286
upperback 8.35398 -2.43363 3.89977
thorax 3.23417 -0.794371 -3.09284
lowerneck -1.90614 -2.28203 0.224565
upperneck -13.4562 -2.78684 4.07184
head -3.9999 -1.6332 1.40069
rclavicle 8.70677e-014 1.19271e-014
rhumerus -75.2271 25.4005 -126.644
rradius 68.2296
rwrist 25.6468
rhand -7.04991 10.2288
rfingers 7.12502
rthumb 18.8228 -18.8805
lclavicle 8.70677e-014 1.19271e-014
lhumerus -75.2063 -31.0562 141.423
lradius 63.0311
lwrist 3.2286
lhand 12.1042 -7.08562
lfingers 7.12502
lthumb 37.1192 18.9479
rfemur -42.6296 4.27758 29.7546
rtibia 61.8534
rfoot -34.2972 -16.609
rtoes -13.3217
lfemur -61.4746 9.26164 -18.8521
ltibia 104.57
lfoot -22.6789 10.9164
ltoes -18.2606
282
root 7.60226 15.7702 9.19831 17.9258 -30.5325 -6.62654
lowerback 9.74289 -2.36552 13.5287
upperback 8.40382 -2.49798 3.97733
thorax 3.1774 -0.817782 -3.16191
lowerneck -1.99849 -2.3512 0.163226
upperneck -13.238 -2.90231 3.91552
head -3.90215 -1.67597 1.35487
rclavicle 1.06549e-013 -6.36111e-015
rhumerus -75.277 25.4144 -126.651
rradius 68.1076
rwrist 25.23
rhand -6.86642 9.94709
rfingers 7.12502
rthumb 18.9993 -19.145
lclavicle 1.06549e-013 -6.36111e-015
lhumerus -75.0676 -30.9839 141.511
lradius 62.839
lwrist 3.56756
lhand 12.1145 -7.03869
lfingers 7.12502
lthumb 37.129 18.9923
rfemur -42.5033 4.37292 29.8702
rtibia 63.3268
rfoot -34.7925 -17.1992
rtoes -12.8802
lfemur -61.7521 8.61876 -18.6175
ltibia 102.112
lfoot -23.2309 12.0526
ltoes -17.8159
283
root 7.58197 15.6649 9.24757 17.2512 -30.2972 -6.6292
lowerback 9.98465 -2.45913 13.833
upperback 8.4731 -2.56875 4.04525
thorax 3.11227 -0.843883 -3.24058
lowerneck -2.08698 -2.4348 0.0905571
upperneck -13.027 -3.03605 3.76291
head -3.80773 -1.72805 1.31308
rclavicle 7.15625e-014 -3.33958e-014
rhumerus -75.3093 25.4325 -126.651
rradius 67.9817
rwrist 24.8082
rhand -6.64493 9.65243
rfingers 7.12502
rthumb 19.2123 -19.4186
lclavicle 7.15625e-014 -3.33958e-014
lhumerus -74.9336 -30.953 141.633
lradius 62.6291
lwrist 3.945
lhand 12.131 -6.97313
lfingers 7.12502
lthumb 37.1446 19.0538
rfemur -42.2593 4.31468 30.0035
rtibia 64.7536
rfoot -35.3646 -17.7178
rtoes -12.6052
lfemur -62.0716 8.07961 -18.4159
ltibia 99.5671
lfoot -23.7355 13.1383
ltoes -17.331
284
root 7.56158 15.5624 9.29845 16.4908 -30.035 -6.60913
lowerback 10.2757 -2.56453 14.1446
upperback 8.56311 -2.64628 4.10785
thorax 3.04179 -0.872615 -3.32584
lowerneck -2.16643 -2.53412 0.00396748
upperneck -12.8338 -3.19004 3.61061
head -3.72131 -1.79037 1.27496
rclavicle -4.92986e-014 1.90833e-014
rhumerus -75.3284 25.4676 -126.645
rradius 67.8629
rwrist 24.3831
rhand -6.4143 9.34645
rfingers 7.12502
rthumb 19.434 -19.7024
lclavicle -4.92986e-014 1.90833e-014
lhumerus -74.8043 -30.979 141.797
lradius 62.4115
lwrist 4.35136
lhand 12.154 -6.8986
lfingers 7.12502
lthumb 37.1663 19.1227
rfemur -41.8855 4.07356 30.1473
rtibia 66.1037
rfoot -35.9995 -18.1428
rtoes -12.5303
lfemur -62.4169 7.64691 -18.2586
ltibia 96.9079
lfoot -24.1587 14.1246
ltoes -16.8542
285
root 7.54116 15.4653 9.35054 15.6472 -29.7224 -6.57637
lowerback 10.6113 -2.6898 14.4747
upperback 8.6764 -2.7411 4.17141
thorax 2.97014 -0.908533 -3.41585
lowerneck -2.22451 -2.64689 -0.103688
upperneck -12.6705 -3.36027 3.4662
head -3.64924 -1.86113 1.24462
rclavicle -3.02153e-014 -1.19271e-014
rhumerus -75.3388 25.5362 -126.641
rradius 67.7568
rwrist 23.9567
rhand -6.25496 9.10061
rfingers 7.12502
rthumb 19.5872 -19.9327
lclavicle -3.02153e-014 -1.19271e-014
lhumerus -74.6703 -31.0717 141.994
lradius 62.1899
lwrist 4.76093
lhand 12.1853 -6.82996
lfingers 7.12502
lthumb 37.196 19.1836
rfemur -41.3684 3.61505 30.3062
rtibia 67.3473
rfoot -36.6706 -18.4605
rtoes -12.6714
lfemur -62.7672 7.31022 -18.1408
ltibia 94.0995
lfoot -24.5269 14.8887
ltoes -16.252
286
root 7.52122 15.377 9.40492 14.7044 -29.3802 -6.51224
lowerback 10.9961 -2.83218 14.8051
upperback 8.81549 -2.8497 4.23024
thorax 2.89807 -0.950325 -3.50679
lowerneck -2.27033 -2.76811 -0.228623
upperneck -12.5241 -3.54081 3.32485
head -3.58528 -1.93706 1.21911
rclavicle -1.74931e-014 -6.75868e-014
rhumerus -75.3534 25.6502 -126.644
rradius 67.6646
rwrist 23.528
rhand -6.18484 8.89751
rfingers 7.12502
rthumb 19.6547 -20.1289
lclavicle -1.74931e-014 -6.75868e-014
lhumerus -74.5184 -31.2241 142.207
lradius 61.9675
lwrist 5.13676
lhand 12.2301 -6.78079
lfingers 7.12502
lthumb 37.2383 19.2217
rfemur -40.6858 2.93684 30.4376
rtibia 68.4605
rfoot -37.3537 -18.6445
rtoes -13
lfemur -63.0665 7.07518 -18.0997
ltibia 91.0898
lfoot -24.8006 15.433
ltoes -15.8032
287
root 7.50233 15.2991 9.4615 13.647 -29.0107 -6.4109
lowerback 11.4394 -2.99067 15.1337
upperback 8.98194 -2.96877 4.28244
thorax 2.82305 -0.996432 -3.59903
lowerneck -2.30474 -2.89509 -0.375973
upperneck -12.3831 -3.72768 3.19128
head -3.52495 -2.01588 1.20045
rclavicle 2.70347e-014 -7.15625e-015
rhumerus -75.3725 25.8051 -126.651
rradius 67.5799
rwrist 23.098
rhand -6.23652 8.76
rfingers 7.12502
rthumb 19.605 -20.2715
lclavicle 2.70347e-014 -7.15625e-015
lhumerus -74.3477 -31.4319 142.424
lradius 61.7503
lwrist 5.43291
lhand 12.2884 -6.76008
lfingers 7.12502
lthumb 37.2935 19.2279
rfemur -39.8195 2.04147 30.515
rtibia 69.4295
rfoot -38.0249 -18.6849
rtoes -13.476
lfemur -63.2665 6.93498 -18.1506
ltibia 87.84
lfoot -24.9923 15.727
ltoes -15.4789
288
root 7.48469 15.232 9.52014 12.4449 -28.6327 -6.20964
lowerback 11.9493 -3.16228 15.3872
upperback 9.17098 -3.09741 4.31787
thorax 2.73575 -1.04996 -3.66353
lowerneck -2.33144 -3.02337 -0.53918
upperneck -12.2326 -3.91563 3.05809
head -3.46264 -2.09479 1.18453
rclavicle -4.69132e-014 3.73715e-014
rhumerus -75.4146 26.01 -126.669
rradius 67.4988
rwrist 22.666
rhand -6.42212 8.69361
rfingers 7.12502
rthumb 19.4265 -20.356
lclavicle -4.69132e-014 3.73715e-014
lhumerus -74.1406 -31.6644 142.621
lradius 61.5408
lwrist 5.60912
lhand 12.365 -6.77713
lfingers 7.12502
lthumb 37.3658 19.1919
rfemur -38.7749 0.945776 30.4541
rtibia 70.2571
rfoot -38.6635 -18.5677
rtoes -14.001
lfemur -63.329 6.87356 -18.3618
ltibia 84.315
lfoot -25.1128 15.7864
ltoes -15.3027
289
root 7.46853 15.1744 9.58031 11.1565 -28.2487 -5.9657
lowerback 12.5134 -3.33903 15.6073
upperback 9.36845 -3.22277 4.34865
thorax 2.63033 -1.10401 -3.71132
lowerneck -2.36206 -3.15046 -0.70778
upperneck -12.0513 -4.10213 2.9157
head -3.38917 -2.17242 1.16556
rclavicle 7.15625e-014 -1.00187e-013
rhumerus -75.479 26.2512 -126.688
rradius 67.4182
rwrist 22.261
rhand -6.72196 8.68081
rfingers 7.12502
rthumb 19.1382 -20.3976
lclavicle 7.15625e-014 -1.00187e-013
lhumerus -73.8991 -31.8984 142.779
lradius 61.3462
lwrist 5.63432
lhand 12.456 -6.83426
lfingers 7.12502
lthumb 37.4519 19.112
rfemur -37.5884 -0.296913 30.2929
rtibia 70.9467
rfoot -39.25 -18.3203
rtoes -14.5061
lfemur -63.2812 6.90113 -18.6813
ltibia 80.5109
lfoot -25.1615 15.6748
ltoes -15.3861
290
root 7.45407 15.1259 9.64202 9.80904 -27.8831 -5.67719
lowerback 13.1192 -3.50986 15.7784
upperback 9.56381 -3.33323 4.37466
thorax 2.50448 -1.15409 -3.73603
lowerneck -2.39556 -3.27625 -0.881941
upperneck -11.8348 -4.28702 2.76199
head -3.30333 -2.24872 1.14281
rclavicle 4.29375e-014 -1.27222e-014
rhumerus -75.5707 26.5253 -126.702
rradius 67.3407
rwrist 21.9313
rhand -7.097 8.68578
rfingers 7.12502
rthumb 18.7775 -20.4279
lclavicle 4.29375e-014 -1.27222e-014
lhumerus -73.6146 -32.1008 142.881
lradius 61.1703
lwrist 5.49742
lhand 12.5619 -6.93238
lfingers 7.12502
lthumb 37.552 18.9874
rfemur -36.2886 -1.62751 30.0117
rtibia 71.5049
rfoot -39.7818 -17.9556
rtoes -14.932
lfemur -63.1334 7.01313 -19.1031
ltibia 76.4272
lfoot -25.1395 15.4527
ltoes -15.6821
291
root 7.44113 15.086 9.70517 8.44103 -27.5437 -5.36717
lowerback 13.7501 -3.66733 15.9141
upperback 9.74828 -3.42061 4.39931
thorax 2.35929 -1.19592 -3.7433
lowerneck -2.42715 -3.40553 -1.06462
upperneck -11.5894 -4.47557 2.60772
head -3.20803 -2.32683 1.12067
rclavicle 4.37326e-014 -2.54444e-014
rhumerus -75.682 26.8216 -126.7
rradius 67.2645
rwrist 21.7824
rhand -7.5198 8.65899
rfingers 7.12502
rthumb 18.3708 -20.4935
lclavicle 4.37326e-014 -2.54444e-014
lhumerus -73.2987 -32.2551 142.921
lradius 61.0207
lwrist 5.20255
lhand 12.6806 -7.07578
lfingers 7.12502
lthumb 37.6642 18.814
rfemur -34.9042 -2.99092 29.6279
rtibia 71.936
rfoot -40.2505 -17.5124
rtoes -15.2816
lfemur -62.9083 7.19198 -19.5827
ltibia 72.0826
lfoot -25.0935 15.1814
ltoes -16.1358
